<mxfile host="app.diagrams.net" agent="Mozilla/5.0 (Macintosh; Intel Mac OS X 10_15_7) AppleWebKit/537.36 (KHTML, like Gecko) Chrome/131.0.0.0 Safari/537.36" version="25.0.3">
  <diagram name="Page-1" id="IE5dem608f8TmQ0dC1uy">
    <mxGraphModel dx="714" dy="543" grid="1" gridSize="10" guides="1" tooltips="1" connect="1" arrows="1" fold="1" page="1" pageScale="1" pageWidth="850" pageHeight="1100" math="0" shadow="0">
      <root>
        <mxCell id="0" />
        <mxCell id="1" parent="0" />
        <mxCell id="zVCy08DbtLVFqTKnJKYJ-1" value="" style="shape=image;verticalLabelPosition=bottom;labelBackgroundColor=default;verticalAlign=top;aspect=fixed;imageAspect=0;image=data:image/webp,UklGRnBPAABXRUJQVlA4WAoAAAAQAAAA/wEA/wEAQUxQSLclAAAB8Idtu2srzf/dzxhj702xUdSAFYldjA27otjBrth7b4kYsWIDK5pmS+zG3luIYg82VAwqil3UiBURsFD2Hs947j/2WnO1uVmLz+fz/e6ImAB0+r/T/53+7/R/p/87/d/p/07/d/q/0/+d/u/0f6f/O/3f6f9O/3f6//9HovgCIiLO+RBCcI0z8aEpeOdEBICId3kkIlIZLyijeGmEifcoo5fKiIhUm3doL669zxqKO/S6aNJb/33t1RdeePaJh++66W+jTztmPQfxoURf3BWWgg0LEXFZfcaQ3Quw+HYnnD3m+rsefnL8i6++NmH8C1evBBe8D0V9Rtde0N75qhLAd2nxqOhhX9NYanp5v24QVKN3DQnxqNLmLW78lsbMxp9Ocqioa+4SAKkiwa7Pvv/Rh1MmvzlxwvhnHn/k/jtvuf6av1x+8QUjTz/lpOOOPPiAYfs9TVNNKSUtGGNbVCOnXnf6KaeccMLRRxx+4IH7DNtz912HDNlum0GbbzJwvbXXXPW3/Zbru1SvJRZpgriGBEKPpZddtt9KK6+6+oC1119/o00223Krbbfdaciuu+85bJ8DDzz8iGOPP+mPw694x0jTGGNUVU1JVaNx0gk77rLHsAMOPfrE4aefM+rSP1913S133PfIv58e/8rESW9P+fCjD57bDVI1HgfQWPGUWEZNLLtpW+u8Ob/8NHvmjOnff3X98pAs4kPwTuosEeecSBZB7+u/+GHmTz/98uvcefPb2lJi+VNMLNmUlTceAV8tATdzTpumlJJmjlk1KsucNGZVVU3JzFiqcc6xcMU8CrsQvNRJPqCoC1LE4V4qSzYzS0lVNWZNLG+KKanGjJo1tY9zeCNCtTisM4NmMTE3rdQ2/rJLMXHosum++w7uFwCgDhCRyokD0K3vqqv3X8oD4gp53M150UpmXpom44wBcNUCwdLHvdRGpmg5Uarxmw0QXEEBjp5qJOd+dP95B23bFQJAyuuy+xKDDyV7yScRcc6HEIL33hWUrK49AHHOOe+9D+299945J4UBOIct/jbh25/mzZ8z+5MHD+oCEXHOeaz0AY35nNTId0f0haB6RYDfXfopSY2WO8aXVoBDQYG/hclUjSSVYxCCF+RjcPnig3eoym7dPCorDnIzjUUTn+4NQXtBl12fyKMUE/nLfdsFiKCaJQjQbcjdM2lMUS1nXrv3mXHP/efFCRMmTXrzU6ZEkpZiVLbuCgeI96GpqbmlpUvXLt0XX6zHkr2XXqbvsv1WXGnVVVYbsNaA9dZbf+ONN9580JZbbbfttjsNGbLr7rvvuc8++xx40IGHHXH4Uccff/yRe23cGxCXJ4L2rqVX/w222eOQk0Zefu0/73/8uZde/e/bk4u/NWnSpElvfPLZB5Mnjn/iwduv+8tFZw8/5uBhu2y/5UbrrNavT89uLcEBgv5PUqNawRSV3731zpuTJk54+fnx4+58PmcsaUw0fnj2ioAEh2p3XoAl979/BkmaaoxRi6aUrIZKTsxqbH3iyhufePP99z+e+ukXX037dvr3P/w4Y+asWbN//vmXOb/OmTdvfltbW0qJFbdZE69ZGZIfgi3+esujL7z71ay5ibUY58/5aeYPX33y7hsvPf3ULKoxa2JeaixRNRnbT7tpuxbAe0EtivcQLLnbVa/PYhmT1VDSoimlxOyWWNVmZqmgqmrMqqTxu83h8sJjz0RjYdMYY9SiKaumlDSllLRgLKjJWKopS7SUUtLCqZbKOnfq06MHLwJIcKhdCQ6A67vJISOvuu2Bx8Y9+eRTz7044Y0pX85jLVXUNEZNxa3iLHvS2DqPp8HnRcCZnDOvVVMyM1a/FU0pJVU15rLx6Rtv++ctN9xww/U33nz9NX8effqRuw/s1x0AvBfUuHgvKNU1d//NifNpZTGz2qp1s6QxqpFMfAD5Kej2LBOZNMaomszMqilvrUzkBvAoowtekI/O+xCCd9Ie7R0eoZbDSKYYNVmtmNWAWUqqMUY1Fv3utX+esl1XSG5A0GXoPybPZWZLGmNUTSmZVZnViqWkUY2WymGcsTyaQnbvnRPktLRvwqWM5eAPMxMLmqpqqgIrhdSoalVgKWn7qMasac60CXdfdNC6vQWACHJUBGjqt92xF1x1x9iXpnz1S6uxRI2qqilZpSxpNJZoVgWWVKOycKuxnIkfegg6Vo/R5Ui8oKnngN1OufaZT2YbCyaNMZmVxZLGZCx1zny2N42azIpZwZQ0xhg1JWPm+TO+fO+Fh6678OSDdlqvTzdBe/HeC3JVvBcUbereq//6g/c8/JRRV905buLHX82cz4yWNMaoKVnBdtY+JY2aSFJ/LoFMUa1MZkljTMaCrV+/cc/ow7daaYtXmEpTvgKHDrYZF5TDuAU82oflNz1g9H2vf5VY2DRGTSlZwaQajQXb2jSD8vneA3Y5866JP7KwaYxRk7H0NPt/77z0r5sv/eNBO26yet9uyOyDd4JcFudDCN6hVLfYsmtsvOOhZ175wPjJ0+ayVDMzZm39aOyZmy46lprBfppHkilqStY+pZRUY4xqLPrz+8/84w87rrUY2ntsTyvH3Qgdi3cOt1JLU14N1847tJeeq+70+78+9MZ3rSzn/I8fHbP/ql0HfsRUxDh/EBzgl97omGuemjrHWNza5sz++sM3nnngpivOPm7f7dZfeZklmpBZnA8heCciyH8REee8DyF45wRZQ48V1hly9PnX3vvsW1/8+GursWia//OX/x177ak7rtIFDqv/QCuSOGnproMve3UOyxtnvf/UTecdMHCZLmgvodDQ8twK53zHIQ5hhTPaaKWRfOzUo3ZddynAtxcUdIv8dvChZ1/zyOuffPNzm6W5Mz57+eYRQ1ZsArrtdeFbNBY3/vLcQ1dsCAGA5j4bDj3wmGOOPnjPnQYNXH3ZJbo1C7KLL+xE0LGLc76gQ0bXdbE+q6y3yRaDd9hhm803Wqd/r64OgKD3ybe/9CuNGe2Ji/duxnJ7XPTkR19/137aZx+9/fyDN1x68n6D1+wZUNh574Ng0f5bHnrssVOYSjPOHb6cg5OOAu7gV+bTWFZj+5nj1oMDAHE+BIfivke/Aeuuu1rfZrR3WPFjJmY3oxmPQ1MIgnKKCyEE751zIlgAFXHOhxC8oJwuNGPd/9FIY/bE9/rCAX6JJZdccsnei7UIskoI3jkBIFjxli9aWcm54/cTdJCCm5moZaJGTWacsSocios4H4J3guLig3cBf2ZrTNloGtv4/ZIQQMT50N5775wTEcGCs4iIc76wc05EIGh+m21Rjdk1tvLPaAkOGUWc9yF4J4LiDitPo9FUNZXHlIm3QDoEj82YorGiNp9XwWfIKOIKCto7PEdlORO3gkcd6rABE8uZOBECQIqivA73c34yVtKicgv4jiDgD4ysdOJ7qEKHZ8tkHJo3ztesyxePIbQyvVugsoK+P9JY6ciTEToCj4urwPjzSnBVMLZs2+SLONSwz5WAQ6lleqMKPLamsQouhu8YLq8CJm4LXwUPlG3LXBGHVffYa8+9Mu651/4HlHnfPffKuuvQoTsP7QeXL8MZy6L8D1zFAvZjrIbLO4pLqyHyKIQquLNs2+aJOLlcaaxJ4/wR8LlyLtvKNLYKPIZXx2UdxahqUF4GXzGPG8uUuFeeeFxOTbXLkQh5cjljme6pijHUahjdUYysjvur4irGsiiPRMiNgOGMxppNyqMQcsPjurLdBF8Ft1fHOR1DwGnV8QqkCsaUKfLM/AgYxmSsYbO4M0JeONxJLUvkVVXxTHWcgdAxnFwNiZ90h1QqYFTZrobPCY/N59BY04mzN4TPjX+VbUzlBHiTqRpO6SiOrwbj7GXhKiO+C04tk/IRuAxStCY8VvmGiTWe+GV/+BqQ9qUIXi7bSDQHV6ke/6uOEzuKI6uB5IAKOYHHTdSyJE6ELxiCFxT1wTupMoclp1BZ88rJveCqzAWP9s6Hgr6wvM9UFuXjAMRVxKHfHFo1HNNRHFwViTvAV0LQZYfz75tHK9P/AgRFfbeevXv37ObQ3gdXRYKW5xiZg5HPNkOqR3wQAE3dmgUlCpaZRSsLydfvu2AFSGXWo7EaDuso9qsK5VEVcVh7Co0VPHe1gVvtdtBJF/z9/mcnfTp91qzpn0585C8Hr7sIAAmuSsThTkbmYuSdcFId4gMAt/qJD7/zybsTX3zq0Xtvufqy80Ycf+iwoVsPHPQqE8tsNM4YCFcBj12ZquLAjmJvahVEjkaoAPAKY9QKlDt9/uAxKwOQ4KrB4zJG5mTk5fBVIN4DCBueP3E+qz7FVr6ISgb8gVoFyv06it2r5JZKOKwxn8ZKKi2pqsaoKZmZpRSjGsn5L5+6igASXKUCTqIyN5XDESrkggPQbfCf30+kqaaUkqrGGKO2T+0rQBrnrQZXib8wVsWwjsFjZ6YqUD4JKZ/HUCbWYlIl2friKasKIMFJBQL2MLP8sMT9ECrggkDQY7ebPqfRYjLWonEH+PJ53F8le3YUO1ZF4uQAKVvAMGpNkDRVkvNeOqU/AAleyhSwyS9MzFHjvMEIZXJBIFjmoHu+o9FiMtZo4k4VEGACtQoSd4PvGLalVYHxh8Ursn/tkDRVI+c9f+qaHoD3UgaPVb5mYq4mTl8LvjTxXgC38knjfiaZYmLtmnGrinT/kqkqdu4otqJZNbT1h6vAvjVF0lRJ6n8v3awLABdcCQ6936EyZ5UfLQOXTbwH0LTO6S+3klQ11rRR14Urm8My82hVsVNHsTlZBSS3gq/AAbVG0jSSTB9fvWsvCCR4KSbo8hwjc1c5YTG4YuI9gObNLpscSaoaa904d5WKbMKqMO7QMThsZFWhPBAtPmT0LmszTmCsOZKm0Uj+8NCx/R0AH6SdONzFyByOfMyLtHPBAVh86D+mGmmqxhw0zl8VwWX1IaNvwT5MrIrBHUMzBtGq4w4IyixY5AWmPGifYiI5/9XRm3YF4ILzTbiCkbkceT28c0Eg+M1+d39Do8XEvEwcBYcyC/AAtRoSd0Nwuec8/GNUVueT51147sizTh3Rfvgl995V/MFnv6ExRy0qSfvspr2XAuAwnMqcjrwADkC/Y8fOIpliYq7GSeNffPaZcWP/PXbs2LGPXzR8xIgRI04dcfbIUaMvepXGajR+tiGc5JwTbPYGjdVprKQxZ02jkZz9xMnrrjMmmuWVJZ6z1Nqnj59HUtWYt8ZKGqvTOHfC6vC55rH8XcbEatWYXTMn5nGKiQUTczxxXiSpaszjpJlj9sRqTcq3loDLMY9tfqQqF1xNlaaWZ5bIqMYFV2vjoxDJLY9NZjOyzjfjAm7knxDyyqHfNCoXeiqPR8gnQdOLjFz4aaY7IeSSx0WMXBiaOHsj+BxyWLuNtlCEiV+tApdHd1O5kFQ5qTskbxxWm0tbWMI2joLPm4AzqVxoapy2OCRnBOMWptA4CD5fBN0/Z1qIkrh3/iz+LW0hinFQ/mA8deGJcXpPSL7A49iFKcqb4JGzgl7TaAtNqBvC5Q08LqcuLFE+BIfcdVhzHm0hiXEQfP7A4QHqwhHlk3DIYY+taQtHEofC5xEEz1EXhihfE0gueezBtHDkEHjkssBPZFr4kfhBN0g+weNQ6sIP5cnwyGlB13eZFnYYv+wFySsEHEdd2KEcCY/cFizyCVMuWbL6y5JaHhm/WRqSXwgYQc0hSyRVrZ4yVZKWckg5CgE5LljqW1ruWOL3n88nqVovJSU5f8rzs5lyxzhjGUiewWMMY94k/nzcImHNox6ZRSathzSRsx85fNUmrDONmjeRV8Aj1x1W/pWWL4mztoYDgD5Hv0WmVO+kRL4zfBkA8Fjra2q+GH9YHpJv8LiZMVeUMzdGk8AFBzTt/gqpVs+YGl/fuxlwwQEBv/uemivK8+GR8w7rR+apcuZmCCjoggB7vMek9YsmfjRMIMGhYMCGP1BzJPGzHpC8g8PtbMsP5czNEVBcvEPL8JnUVJ8k5c9ndIXzguIBG/7AmB9tPA4BuS9Y/mtGy4nI7zdGQHbvsMLDNK1HNPFfK8F5ZA9Y5wtGywdt49Mekn9w2HwGU1RNKZmZ1YqZaeRHqyOgVPGC/b+nWr1hyh8OgnhBqR4rvM4Uk1WTFU8FtX2MZhy7BAQdoUf/x5QZk1Z/SmYkjQ/2hkcZnUefh5m0vtDEfy8P71BGjy6XzqORSasyJTOW+51DRAQdoxOsPeLO8e988uX0n1pZszZr3E4Qh/J6wXG/UK1+sMhfj4d4lNc5rPb3z1tZzRbnz/l51ozp33z52cfvv/Xqf8Y9eu9NZ28e4AQdpXNo7xddut+aAwcN2f/o4edcevV1N99+94MPP3TP3YXvuOXWm/5x3TV/u/JPYy4bfd5Zp51y0rFHHnLAPnvssuN2g7fcfOOB6y0DOIdyu4DVXmaqGyzxtTUQHMotHui2xkaDdhp2+HF/GDFy1OjRl40ZM+aiUaMvOPvsEaf+/qRjjzrs4AP22Xu3XXbcYZvBW26xycB1B6yxykrL912q56ItDhnFoyN1wYmg1p1HBcUjjEq0+sColzTDCyroPGpXRMQ554MXdLwi4pyvWedQYRcwiloXGNMe8A4VFuer2RWUgqhjAzah1QnfLwWHBqzH7kx1AROHwDdm7qHWB8p/NmQES8+gFdGYFrxSSlbI+G1vSOPF40gqs6otWJkya+JB8I0XwZPFjP8e+QWTLkip8sNdTiqmfAyu4eKw2jxagcTPFkOvK+ZR04KSKeOfugMvUQsYf+0H12gJOIORBZXXokWw5jiaLhilxJcHwrVgeBFG/h6h0QJMZCqUOBhePLDfl7QFIePMkzy8OKw+j1ZA+SKkweIwkEUTP26BAM5jyX/EBaDE8cvCewCC8dQCxjgArrHiMYZaKPLP8AAgLej9IdMCT+SJ6OoAIOCPjAWovAC+oSLo9gFTASO3KOAC1v2AiQu8xm+HwDsADqvPpxVIfKsJ0kjx2JHGgomTPQTwDifMpXEB2JhGOXi0H08tQOOW8I2VWxkLRV6MAAnodT9T4gJxUj69LIIg4NRikVc1VAS9v6cVMm4M5zy2nMpoXEC2yO92hncOq0VagcTPu0MaJwEHUVkw8a2AADk3UrkArcaLPYLgZWoBJu4M3zhxGFtMeTFasPxz1MQFUrMyMSlfXAktGFFMeUcDxWHlX2mFyE2APb5nNJZZY5t2YKakWnloyh/3AdZupRUwft8H0ijxOI3KgolT0PI3mrLMKZFk0o4qGc1oqTykGv/eDROoBag8DL5BIpDXmQpFnt33LcbEMivt36ef9kikWkdkyl8uWmf9v7RSy8QU+e6yR2V5Aq5B4rAxixv/+x3VWN6knLY7RDDoDSbteJLy9TUhDpt+zGjlIZU/vMKixrkrwTVGAv7MWISkJZZZjbf0hA9NDuH3s6ipYzFlHN2E4HzA4ncyaZmYjBmVwxEaIoKuU5kyJGN5LfLbPeA8AHiPFR6mqXUgSfn+ZvAOALzDET8xWnloKUPiy2iMegxlYsWT8qGlEBwKihfs+yVVOwpT2pXd4AUFJWCNidRUnszGuD5cY+QOasWUradAPDI6j17/UGrqCEwTP9wWziOjR5craVopRl4I3wAR9J1Oq1TkZ5siOGT3DhuPJ5PmnWninFHd4QWZncfes6iVSnyvCdL48DiKygpHvtQHQVCq85C936UltfwyVTLetTKcR6kSsMokaoVo3Aq+8SF4tmLKh7rCo5zeoWX/SSRVk1neWNKoNP76z3UgXlBGjy53UyukvLYB4rBGpFVG+ZgXhzJ7B7/tA7/QSJol1RhjVNWUkhWuEsuYkmqMUY3tfx0/fFnAOZTXC/5JrUziF4tBGh0BIxlZ0cSpveFQdvECLHv43ZNnKMtsKWlMZdO2qCmZsZxtn79w5T4rAPAeZXdoeZWpIkzcE77BIZC3mCq1HwIqKd4BaFq6/zqD9zrqtEuuuumex56Z8PZH/5s++5e5bYmVTcxo2jZvzs+zp0+d/PK4+64556htVloUACQ4VNJjS9IqorwHrsHhsSWNFU18CYJKO+9Rqmvq0n2JPv1WX2/TwUP3OuD3k2hlMd5++BH77zl0u6232HiDddb47fK/6dG9xaG4C96h0g7PUCtinNkX0ui4hlqp/REqBkDEOe9DCMF7JyjRof88WhmUd0JQTnEhBO8E1RhwVIWoPAKhoSHo8T+miiR+3A1SDaVKYeec9z40+TCJqTTjryuiOYTg27v2UhDVLOgzk1ahJ+EaGh7DqKyo8lIE1LzDE9RyfNsLglr3uIdaEePcleEaGQ4PVcho68LVnscL5Uh8r2su7M5UESpPg29gOCz3M60iygkQ1Lj4Jqw5l1aa8ZseaHJSY4LFPmOqSOKrAmlcBJxAZekpS+QpCLXlPAQrTGRiGRNPhAec1BQ8/krNkkojORCucSF4oQyWmNH4a3+4mhJB103/NIPG8sbrtltrCdTcZqRlYEolRV6K0LBwWDfSSkmW3m4tpvwXHGpZsPR1XyktscxGtv5wa29ILQH4L1OxOCUylZL4QROkUeFxEZUlJs7bb0sWTzwIvpYETROYLBrLHhOVj9dYwEjGIsadBn9HLYHGbeAbFIKWD5hKMM4YhMsZCxm/7QWpJY+d2JZYWUvKjeFryWHNSCsUeQVWnMxUgvKGhoXHdkzMbtQd0PwuUyHlrfCo5YD9GVnxyMMRagmC/1ALJU4OWOkbWjbjtF6QRsXNjCUoxwAbklYocWiNOazVylSxNh5VYx7HFzPqOsBhTNmo3Be+ISHo+S0tm3FGX+B8KgsmTl0EUlNwGMUYk5XPVCO5MXxNOawwi1aAyj/Cd/mQqZSH4RoSHgdSmT3y7/CYyFRIeSU8alxwDkmzcpnRqOdBUNsOD1KLPYMm/IUxm/HnZeEaEQ5jSzJuDQwwFjUOqj14bD928lyWfe5rd5y0CgQ17rFPMePPywEHUrNReRxCA8Jh5V9p2RLfbfI4g1oo8R0HqTlxEAyaTSuHce52EMCh1gU9vqUVYOJBwOpttFKehzQgPE5jZPbICxHwQrHICxFQkyIizvsQgvfOeQm4jLEckX9BQAjO+xCC986JSE3A42bGQpF3QZqmMGUztg6AazwAE5lKINcFVplPK0SuB1d9PjiUKov0GTCeqRyJEzf4zSKCUn1wtbADrZDxq0UFVzNmo/Jc+IaDw4YsVfkaAk5kZEHlBECqTRwAuOZF+6624bZ7HHXmFbf+a8KUz6e3suxt0z+f8spjt1x+xtH7Ddl87RV7NDsAcFUn6PYBUwEadwAG00pInOwhjYaAKxhLGoEmjKMWOw0eVYeNL37opSnTZvw035jVUrmSMXP8deaX74y/Z+QASLUhYAy1UOQVcC3vMWWjcXP4BoOg2ydM2YxzVgWWn0krYJy7KlyVCdx1NBY1jTGqakpmLLtZSqoaY9TEjJdAqs1hAxZNnAyPS6klRP4NocHgsQsTsyufRBMOprKg8mk4VLnHMYxRNSUzM1a9mVlKGmPivvBVBuANpgJGXQdYP9GyJU7tDmksONxJLelItODuLMcgVJtgPJU5GPkEXLUFnMFYgMrhCHiZKRsTd4VvKAj6zqBlM87qAyz+BVMB48/LwVWZoMtUpjxI/Lw7pMocVp1LK/IkmvEHagnKO+AaCh5HUZld+QCasDWNBZUPwaHqen6dD8bZ/eCqDILHqQWMs/oCK/5Ky2ac8RtII8Hh6ZISh6EFlzEWStwfvuNqW6v6PA4twsRhaMKj1GxUHg7fQHBYdT4tW+L/ekAwgVrA+E0vSPUt8VVecH34ahP0/o5WIPIGNGNfppLGwTUQAs6iMrvy72jC8r/SCihvhUf1LT4tH2jctPrgcQu1QOKHTUDP/zFlM879LVzDQODfYCrBOAjN2IuJBROH1sRiX+ZE4tY1sQNTAWNaH024lpqNyhEIDQOPzVlq4rseAaMYCyR+vgikBhbNC+WONSDo8hFTO0b+ES3YglZC4qsCaRxcyVhC5GgEh8epBZRXwqMGFvkiN/asAXhcwlhAOQ4ObjJTNqMNhGsQCBb5gimbMa0DD7zPVMA4qDa65cdBteAwoI3WLnHaEmjCuYzZGDkGvkHgsSsTsyvHQxyW+p7WLvEtB6mFrp/nxjG1AId/U9sZ0zoIWDPSsiV+2AxpFNxFLekkeIdV5xZSnoWAWujyWW6cXBMeQ5jaMXEQvOAZajYat4VvCAj6/EDLZpy9ApzD77SA8acV4WqiZWpunFkTAF6itlNuA+9xVEnKGxoEHkdTmV35EBw8BrJg5NXwqImmT3LjnNrwGEJrZ9wUXtB3Oi2b8atekEaA4Oky7AMPwW+m00jl9OXgasN9lBsX1AYcHqaSxjmrwMHjdmo2Ju4H3wBwWKONls34TQ8I4HErWy0y7gGPGv0gNy6qmdVmMzFxagsEHkOYSlA+AtcACBjJyOyR18MDcOj/PRN/3BketfpeboypEXicxNjWyr/AA4KunzJlM/6yPFz9B7zJVIJxmwJw2Pzjb/+xAjxqVPBuRwfBlVQ+tzgEgMcVjNmoPAGh7vPYlMbsiZObIe0gaOkKcaidyblxSc3AYbOTd2uBAIDDRixV+R9IA+Bv1BKU5yOgsBN4hxqalBsX1Y44ACJoL8AEajZj69pwdZ5gsalM2YxxLbgiEEENCybmxujaAXzwgsIefyyFyvPg6zyP3ZmYXfkfCPJRMIGaE+fVUmaHfj/TsiW+HSD13r3Uko6Hz42XcuP0nIDDo9RsNG4JX9cJ+syiZTPOXg6SEw7P58Yf8sJjv5Iir0ao6wKOojK78l445MaTuXF0Xgh6fEPLlvh5d0g95/B0SYl7wufHv3Lj4LyAxw2M2Zi4B3wd57DmPFq2xM8WheTHg7kxLEcG00pQ3gdXx3mMpDK78koE5MfduTEkNwTNk5myGWcuD1e3CcKbTCUYN4PPDY9/5kTiVrmBgPOo2ag8Eb5u89iCxuyJbzlIjtyYE8aN8sNhjVZaKS9C6rirGEuIHAmPHLmWMQ+MujZcXsDhGWo2Y/odXJ0m6P4FUzbjvDXg8uSveTFnlRzxOLIURo5GqNM8dmNiduWTEOTJmLyYuVyOCPr8SMuWOCVA6jOHO6klHYGQIwGj8yHxm56Q3IDH7dRsNG4HX5cJ+kynZTP+sBQkV87Ki0+b82UorQTljXWax2FUZlfeAY9cOTkv3oUgPwVdP2DKZvx2SUg95vBESYk7582x+aB8OVcQcAk1G5UHw9dhDv3m0LIlftodki+H5sVYuDxxWCfRSnkcrg4LOJnK7Mor4JEv+1Lz4Tb4PIHgRWo249z+cPUX8GIpRtsYLlc8dmPKg8g/5UzAiaVQeSpC3eWwbqRlS3wdOeuxAy0fzkDIFcHyP9GyJb4GSL3lMYqR2ZWnIeTNINJy4aicgcN91GxGbgJXZwn8u0zZjPNXhsubjfIhcc+88diDKRsj/wxfZ3lsTmN25ZNwyFeHtWMeGDkIPl8Ei37KlC3x80Ug9VXA36glHQ6fO8v8mg/zVoLLFwT8iZqNibvC11WCRT9lymb8vg8kZwTdv82HaV0hOeOwIUtV3l1neezCxOzK2+GRt4KnqbUX+QAc8vd1pmzGH/tA6qs7GEtIHJpDAX9gq9WatfEg+NwJOJUxG5XHINRRgiV/oGVLnNoVkjuCbm8xxag1HKPyGQ/JHYf+c2ilPAupowIOpDJ75F8RkL+CFcYZa1zv7glB/jo8Qs1mbF0brn5yeLQk42ZwOQQRrHP0pTfccc/dRR96+KFSx459qNSHH7rn7sL33HHDJUesARHksMd+TNkYOQq+bnJY6SdatsT/ekgewTnUvBPksWCJL2nZEqc0QeoljxOpzK48Cx457YLP7KrSZw4OOe1xDTUbjVvD10uC50sxzlsdLq8WVD22oJWgvK5uclillZZN+TQc6muBe5spm/GrHpD6KOBUKks5CqHOQsBIxmxMPAC+PgJeZspmnNUHUm85rD6flk35GFxd5LBOGy2b8l441N2CJ6jZjL/+Fq4e8jiXkdkTd4evvzwOYcrGyBEI9RDwJlO2xKmLQeovQa+vadkSX0c97DCQpSr/Co863OPv1GwkB8LVPwGXUEswblKvbUkrQXk5Qt0jaH6bKVviJNTr8iZTtsRPukPqHYdNWWrk2Qj1WcCZjNmYuCt8vRNwGWM24/zV4eozh1Xm0bIp74KrcwR+ClM25TgI6nSHR6nZjDP7Quobj81JK+UI+HrNY0+mbFQeg1DvjKEys3H60pB6TbDIx0ylPAupawTN7zNlU94Oj7rd42JqNuO8VeDqGY/NaMyeOLSecxjQSstE5Snw9UzAFYzZEqd2g9RvcBhHLWUcXB0jaJnClC3yT/Co4z32K8U4c2lI/eKwAUs02sZw9ZxgkalMmWjcFr5+CfgjY7bEVwVSzyHgEsZskach1C8et5aiPBUBdb3DGq20Eq6Dr18EL1EzGX9dCa6+g8O/qJmUY+HqF8gHTJmUD8KhzvfYg6mEV1C/CtynJSTuCl/vCbp+yJRtQh0D4N1sie80Q+o9eJzFmO0pSP0ieJKaRXkyAup+wXKzaBkib4avXwL+xJjBOK03pP6Dxw3UTKch1C8euzJlUJ6PgAagw0bMvjFc/SLo/ilTEeP3fSCNAAiephZJfLcZUr8g4BzGIpEXwqMh6DGMsUjkWQioYwU9PqcWUH7TB9IYAOR5tqV2id8tDaln4LGrMWrSmHgwPBqEgt+8zKQxReUR8KhvPfaYQaNx7jFwaBgKWs6aQSN5NhzqXY8+Zz311n8u/S08GojOoffRD710+5ZwqH8dCjs0FMWjoEM97IJAgkOjUYKD9+j0f6f/O/3f6f9O/3f6v9P/nf7v9H+n/zv93+n/Tv93+r/T/53+7/T//x9IAFZQOCCSKQAA0M4AnQEqAAIAAjwCQU6HgAAAlpbuMir6B/+0l7trPAPsB+gEj8PgH8d1ky2fvn5keINHntn91/tP+8/xH7u/OjT37h+IfZR/qvtA69OpP8v9uXxUcU/3H+y/vB/cP/////ut/Y/7z/cf69/tv5z9Ev07/sPcA/R//df4//M/sZ8TP+S/yvuZ/sX+39QH9c/sX/T/sP7//NV/kP1l9w369/7z+q/6r5AP5n/Z/+j+f/zcf6/2Df8H/wfYH/oP+G/8nrU/+P/Rfv/9Fv9R/03/w/2H/E///0S/sT/7Pz/+QD/zeoB/6vUA9e/pv/Se0H+u/lJ2FHjrPi/eu6z0N/wfQ3+OfU36//ZP3J/t37qfd7+l/uX5Sf0D03+Nv9N6gv4z/F/7v/af22/un7gfUT9L/se8P0z/P/5D1BfVD5R/Wf6b/Yf9t/nf21+xX5X/Sei310/tX2s/YB/JP5Z/Zv7P+8v7//Vn9e/5n8Y/n3mtfUf71/wPcA/iP8q/1P9f/eP+9/TL+6/4f+7/4X/h/2j/8+9/80/rn+z/uX7w/4z///gH/Gv5N/h/6h/m//F/iv///6/s8+/////Wj9bP/D7hX6jf6j87pfxzCMJjob4YLMhyjx0N8MFmQ5R46G+GCzIco8gSYih0GIUBFDoMQoCKHQYhQEUOgxCgIodBiFARQ6DEKAih0GIUBFDoZw0SYaJMNEmGiTDRJhokw0SYaOfuySYaJMNEmGiTDRJhokw0SYcUUAUSYaJMNEmGiTDRJhokw0SZU8kw0SYaJMNEmGiTDRJhokw0Sxgokw0SYaJMNEmGiTDRJhokw0c/dkkw0SYaJMNEmGiTDRJhokw4Z3y83rREoZqR0/17r7/Oik5bugLsLuySYaJMNEmGMH0KY0sNPzMyu7wGpGLHxeEXieUotBu6XINFk6Yvk6zc6ZO03uWXHUQ8b3E9SALZ0zJt6Nx1R9y9QVZNd8nUE8ed9mqQuogHDLysEDGTA2iWUMtnEBfz/+NfhZJO+VE8vLm4GKXinqKSISc4IsSu9h8WGfjqwPPO9SbrUOlITNbLsPHOv1yGK25/JJlE/aXDJjy+YKUBoCTf72vGQJfEB+lkBd462XEoHVKx4sdHHo5HMgbrImtxTtuZXSAsZESuBfp0+XPJJ3Dsq8wFdDf+le2hx22Cn4e5ZzISpDVACNB3h3bHBFD7jCmlAGo5wKJmdpeMYbtg82F+TqeOAb8xg4+hyEqMTGxr78TyiJKnBBAVgjS8TnI2sZhMAszYiXdMP1qg7cf4t7nq0z2FEsT8TxJC4dGwG/0Ic73T2RvaPUJe7vRJhokw0SYaJMNEmGiTDB7ulm3eqoFlRNHilskvNEtF3K20oAokw0SC0DwolTDIgHz9ZOnehNoGMEer4/lk+chYOEGNxrXAgLJ11MAuVxTmoFqWvCwiTmux60c/v9MJWxDpuS407scVXXqlhmBrwgcLfh+oEUGZx18dvDtiI/yG0OTQm0oAokRAREFofqBIuV+nCRhfu0zzuPgu8Lgq2R+KgePyttKZPkkw0IGI3uBOWgpa8+e8vqlQ4/C5WxEi5uHTxNL6gEsc3NJmX2/h8Dgs0YEja3dUaYf4iglMo+SGiTDRz92STDAMavEAascyus1QHcETeKZnUSTJfqVJgQCLSDp05IV4k50ILTceDIqBFCDIKJMNHP3ZJL6QD5IMBs8+3XqKeQ2k+5yQPOh6oufJZjfCeapF+HTxZlOzpoVzclvPyttUOdkkvOdOM7KFIEuE0W1PDrEl5792nCjbiyE/NpmI2iAaX6SzQvuflbi3u7JIMfpD8K5Vki++3G7YdYk8mW6Q78wWkCiEVQGufTtNKyb3BEiMOCLAmqAKJMqeSYYQn5LQ8AEP5NyNEiJo/R3Vva6WVFIfP9ZOAKEmjRNp3uCJENjz8rcW93ZEq92U90ljYUbHf1PaUAUSYaJMMIuGKbvGyRjh8r93bUUAUJK0QU9yKQxfTYnC/d2STDRIA2fHzjJP4LxOF/HtNKAKJMNEmGiTDRJhokw0SYaOfuySYaJMNEmGiTDRJhokw0SYcUUAUSYaJMNEmGiTDRJhokw0SZU8kw0SYaJMNEmGiTDRJhokw0Sxgokw0SYaJMNEmGiTDRJhokw0c/dkkw0SYaJMNEmGiTDRJhokw4ooAokw0SYaJMNEmGiTDRJhokyp5Jhokw0SYaJMNEmGiTDRJhokAAD+/99vpfXS/10v9dL/XS/10v9dL/XS/10v9dL/XS/10v9dL/XS/10v9dL/XS/10v9dL/XS/10v9dL/XS/10v9dL/XS/10v9dL/XS/10v9dL/XQ299RhF0JvkOHVrbYv1UduQoBnMSviQksfZNxlFDfoLUgLdRHCc7/lult1zAobTdaAdQJcp6iIvshhMeviEk5GAedZ4MjqNQs90rCu70/zsP6vt7b9pd3Fakpv8sA2+suWEF6ZgrK62pXrS+f4lM3LCw4ZtWBTs+QH+YlUfBo3gzpXw8zUn5SQUF7bMZGZVIEWhjCP/5c0remjV1vAZDHq1sgOOSfHX/GOLzMO1zgfVRZ/2Xcbnm/D3tqgl5ONUfe/9zNQrz8bpDkcdyA3y1IGafxtBsrHPkk/W1GPsKZZ6qOfT5r4JPmXdOAc25klUjDjHflmyaulA0zNLPdSmOvMrBOjRGfI/wLFv+ORMK4RBt3KkkLcJ9U3Q7uOLv/iMW0752Gq3tl5AigzWDHbd0dTob6qg/VVDBsqiAjNrkwUPe8UAD1IABt8Wf1aoFpuCJ37zHIVHNDENvIXtWLYPWbPLz6Jo3iLXL4VMKNaZYlUeBB+PDFnKG6AYwV/jcLk8S06zbnlMwh+AqW0q2GEdbbFaiqqS/ThSLQ6ooTYtFCaF7U6ofyRAK1tT6dzkFMDcYKsP7IBNKHEioRXp9iVr8/id/9HitFwA7672vRgzz978xuXCxWVD6pjNtqcNxfmjn3+tt7ynLnystg+3txUoZN32nd6djO1booWmPNqtZ9Bp+8nD1xINap/PXIST8jxj+ZOKp1wrBgxoRzhCT5rsW0BoDnf4n0oUt2kM10A1WJFpOtE6LeNmOxDSsO3NDAg5DcyNZF+QPrsKoWjHYTpf7Ygt8aS3y6I5RZu4NNElMmgUbl6AIYDOOECLP0W/dpbTDeLj5ZqlqDA8A0rXvIbSg0JqqQ2nTfawwkLcD0PCxmdfDlQESK2OglAwYr2+w0pdSroaAvRYSMlyM/ahXftOwFI/Pv8QiPSEPutXrQEPCwciilRTtm32dua+ExRRk9Q1PbxhcGGl2ykQDuscfc7awqW4e1SFqJEOSNKrFytORkTq1/eWpMNTEeXDXRWVFVl2aujHKg8o+0/UbaQkQm3W7ti5Rr6bAFs6fvYZD0iEQXQuHdS9tuQwbVlyfOzgk0ZvwlzT4M3JuYFddKnm8YAojWYttQSqOaSuSS/sWM7LHOOwynOm7DPHnlzgNLH7UhzaMQzHjzSgurc7PUF5vbRgr9uhVXjfSeIhTDEbpNqsj/xRhMUiV2f5izaqXp33UvQVFKk+rq7ibIM1ZRINILSPYg3GXqFs3MyalgGRIKpyhJWSkh+Ycto2CvOHGOuWuiYDGSD8MBnxSFJq0ArHuL7Fu07y1Im/T4dCjMoT7+u6ZRuGomaqyjZqivJCQQemqjJu2ccdH4ZGcodSo7joBUUKs5168fTXNB00B0i9n6++D7wT/E+Pb+nWGMOTybnG7TqobFe9KUPRT8ZX2vHQnwgpe+8y7/aKb96Zay3lGU4QqX27gpxQmqFL6/FBXb2K2gMzBRz6y9z8X9bXMO7PBTubrXwRpbNoPfiqkvUmEX8zUGaOmz5z5OWqpdZPsh5HXA/6hTa9jZK2AFmqYlpq0XX9C/ipcj/umJUzc9deJXnqe4/QyPyxsxvee20+Zg+3U23sqBUwhfwDwVqaK9UpHmxb+Y9t1Z/5IQYjuSX1H24x7m8d/V/regAZLCb4f3JWn5K/PJ/5SFPudCVvylWNOOkX5rOWrByFH8M6GxdmtNaUpME70+nSxTas2jJi1wGUPF1XjWx5UmqW4Ap3AXn7DnrTc6sOa2eRbD5wVg1MfHlLDgMF82WM9xlx7XMZ4EuagL11KCqZ7y4y3y9h2kChtPJbv1XUf5NUqvfqezeFELy1rfQcyIkmgGNIizCNWT0CDPF1WUbNZvIxmzzTo2nYGpCyF8/aZdb1Lux8NUD0hemY1+RgBywAN5lw/zjRFePWDN6WQdweuD00R0HvMp49jo13xQrz7s1EcK7R9ExCsB68tblRAn7k7Hxxs36TKTQDU2rfe8DJOrB6qA6V+tqB9vM8AYceLGcn6/sxasyyPReFk7zPve97Z5/G33JfPSPY937LGfuLO0w+n0erfx5KzbROLsVhgn7UlkXLWXE+ORw2tLwrbJIQd9wE70IT3bgeH0cdjqY81PWckzWaV+mqWVct66jeRI71tk6AcrKq+XL7NMY+uBa4KpzvIiMkHumy2wp6eW4JdqO/9VrdvxslewMAgsa2oH1F5/UBGE4DWfrKZznVXcWh4rCDj2w801wAA8bpLbSon3GJ45+Pi4K1FxtwjL3SfngCvlPGCscZzKU8Ym67gEZ4oxoNK747mC7HriyDVm1kitqnefDPasElyuJJOyHwdATgHBvho8LEe+aJ2Kz6fKpzN8Ve1up1KiX1uXscZ+uPfFjlcqD2NLg1PJMcOUYsVNUTGr8cCsnWqVSpIm1lb+nUbX7+q2uKQ1xSa2xWdOiwvFe0y+P5EpTs47jJCjNSkwERQhJFvDD6VxzWO2mb7dl9nD9MXlZWMAFu9JFu6/4oQBZSV8PlbKBa1jmRWpGuaeSxf3UUHCzuX7hO5gULL/x3onyHrjaQb8wYlHBgLbL9JwYGJHgS1e84hPSDwEvOSfO/H6iiC7GVop973fnd1V1qkCuWsfr2qv3zGa9PZ4755tr/QGDLMZTgB84g8NuTE1SNLPAXEHprZuH5B6bRKhU6e2M0rQ8R4W2AZO+wxWHNr6b+zwhr4fvVwQh2bYMefPKqhpv+N+ckj+hO8gs8FIoDZFX3KxbrgH6NcBy34fAuzLPGnbHbv2oPGOguAYAULlnaczB0WfrkGeqLPWQ+B4jmNHJImlLDsk0IxKWzt4Ypm+OyoJ77BflXU3hP8XOoHgozb2MsIO1Xf1a64dwgB4TDAZlw6IoXj4kmhvQWbhe9SCoapfjigCqrOxz8OmcOz9kHa5YxoW+dwRCA8/mERjgGFapDxFR7rduHFsvI45BjpRQ5/gpZMYUpoAfkFrG7lzNA78CPnxUKmvo3698Sv24/Vnqg3l5PTp/DUadp77U6izA3fQiPQBbPs/4447MQStzL+CzmRK/cZNn/6Fe/+o7rAo/SipoZqPb3hxeKP6fN+qgVmerYhnxmbfwaZJ3AKrmy/nrDG3nP5Ak/BQ+zHoShZuEmg20+XQVn08wR/eT6EZ8lkmcIcGeph6gG8vPpBdQFPiT7Ams4W0emfTgbZ10OfdCP8P7zutoakwv02HSvju3sUwlkvuzUq6w3Hn0WHAv1l4iP1wHmZXJsdo4nx36mBpQCQSsKD/5YtaK0BvFos0Ob/FAjuF/tH58GuGfuXlygOisUs/UybpOVZEaO7BEAj/GY7gShFfyN2DLlv+y9sOfht/XulQWb5GV9NFgkhkohny76btlsEamDj+zdV3FcBv5PczokCLKTyTl1Dnh+QY0kvsau5RAiBOjC00RyUR/1wLpIsChJSsSAxCnzX2u2dr2cRVRdY1DEUb7UoeBxgVRXj0uBaAMHKdKS+GdfAp+sOFs4yA2PzZOyftd/riMtpH/CSGOgXio69gcCj1CMBizet7NoQo0jIWQitXTKNUmRONriqJeSq2seCRKsustiI2jKZrI1Jd7PRlUYo0ee13IbGFRaVRX3KrtN9HyrmWSZv/GXCW7zLsDjSFC4zAWR+A8DZ5aBluXl7uZtf/d9704skL/2PYCeKrIbGc37cxScV+8uDx9PiChdELtUgfyuWrBMEzoF6fUrruvzEjzj3bRiD91gV32n0Kybhu6bRPwBFbeSH4MBvYVwmR74VqAINL/9BvDEh/ULk/TjukhYvv1hSVnk8SPtgXSZNJ+LZ555sehmrBp7Hs+UehZN0L1bQRijKP2r/aMkWlz7Wc2eBVp9e0RdI3XNExja0II14SWe8Q3UV4Xf3mhBWlm17GxcZmCrPm++qPwFeKsh2EgdtJJwUKlAiBkBsm9oQaF1xg6qRuUpMNf858GC+6OJ00Ba0HYU/eGNZu0ppKxdEGM3LLaqF9Cz6Y/Ik9ox1SQJDdsjSoMN3QSHoxmvM5MQ9Mbwoc5m7Z6OHnVP/xy/Iu5fVGprF8OvWoyxqWl/u4JzXNVb13yYZ/pzKCIaWxahj5hD1Yq86Now6rX5X/Lwe+ZT64J0UeDBxiNurt9w/jYqtdB2u+BYL2DJ2SwmRFiR8m3XCZzKojXIvt/lSmQ0lED2NoUigxgSCEbjBLULLLjL4SkxRFi2AJsR2s6tX5DCyG+Bppsc6IuYEXAzQqZVXZ1VGiLdLa9ONU1VvH5C2hXZMav4DPuHLeMtXiOeKd9eKMadsT/REQ8k8+slI5MvXxXlLaaLRmt5TlaaccWigrZZWQMw/8YUFW0W5qOknK6Sfp2ALwvzy5YveU4h8KIApBoHU6jCfPRbjiYOp1NrtsFdQPm3LPPnj+tgMBrPIwzAUGVtC5vAG5aK2mwsI2D0pbyJGAeC7CufpjTKrAKPcCivBx1VBdEOaO2aMQcLAH/+RcXtSS+hjxCruR42diBmFNpWcC5hzK7k60vFqitoqIAK4uArszZyxNKVNoEavzrZ0aQOKOm6k6EjanKg4XEEkYFwKs/A0MO1qhQz25HbwFjIN1K+MSY8SKcMuNaq32REBq3XRdhDEOagUXk0nDCxXI1L7M0fXtnFhd+DL3u9vYRHW2nmQalW+079wIQW2eWYOo8EsTtQyRzkLoEcqNcOmuVskNEtkuNqNyndcALfWa/j+hB4R8/qCZSTEQlE6kU2MClN2TV8y4AToZ5l9OZRGBhaGM8/bzBakKuvOahdTy3cjbUNJjYW+14WxMpgUC+8PJ4FoTKGZWfzamM+qPIFyRkY8d3qgSzujZhAulmccehgYoWYalbjAsN+/ZH8+v0JauGc4HVk8glai8uyqO0Y9JCOX1wh4hor7cHJox20cxg6V+G3DMAQ/+DRdldDvkW82tbrSOpUWgShmcKtpX5Jmy7q9q1ORHrT9UFrhXG6O5VWnxTDb3prz0Wq0al4PzB60Hl3SlWuxRLtcR/1MoQ2BWiu9QvDXTGGNNhx/tqEALdb1ODdr0EwRYQ4GlaxNX0aXwvCSg+phLdoGvwt+CmJHVLpmqifwMMXEErJnh0VI3++RPHPrHzWeG/kK0+oO2gNx1nUKuqRavZOUiwACnzSSYpDdgHzYZ6Xhk7/05HJM2z+pZF48U0ETaEywuxsjS3RXo42iCrsn/FMAAPUwO/AG+D76alSGQ0djDIbPsacsTvzyMIvaRBFJEKOv3m/t6wMM7Uk7F/1cqq7lLJ7OJ9fVMUlWuzrU4r2HgI40Al1jevjQTL4xRues8xKei4hgC5jWX5Vn7Kmm91cOzk7DeTESZam6VcCwWUeoU8C3DVY79+cYl0qNkYiGcKRliBozOdNEbP2EGqgxYJS6MF76xV8eUvKpah9xrtYn0FJrjw5ZXajbaUXVuGfREX2WW98H+8KqmPJKnne4a+F0ZgIC+i7HE2b2/zvaRmKXXE87cDud8MMkb7sCF1af1Ah/qsaBR81/CbisGRZ/Srg7dppE9xPVx4++Om02mnuogblDXGRJsBBQN/OqSk/QLmOs9qwuXCBS/Zmq3HE9Jk3qbtYzu7ArBAjR9iBbFNF9qANH4L5DuJ02yCa0gCdaO9HBvobXawB8lQej1ApAVkJ9YOvCHtimS5NfEORHseXasaitA5D77r/5lzZiaPEK3kERn2nwUucebnvq1r83Yhx8jEqbNw7hW6cCONLEhMsmFoCLXRNaeNp93R0ZTUksd4uRtAXBroq865U75lWn44MjrSN7IUcOIPPKrQBgN02fRoQxhdnbBKeiOMx25MdrVAz1mr7+XtpKXssaHfUR1OjDyBhvtx56xsjL55BFhB4d0hoZmXWhJ5kj6Wi25BJozmIumgBs6G/7wK9tBxAbE9N1GIwOBe/ySva/T9Mt/wdPTdSVD7zj/kLdqKr59jTmG/390zJMKObnu2QqBpOrbFM/qVD+wKDqAzwkPtGqE7RC+NFO8mjz4UUd9XhTlYLnfa5HmPU3hli7ijzphnDxLvAjKWOM/+SO10qbnv2K959ZqJk4o/EJd373HhVC0NkrF9aTQx5FrIvls464I4EkYaivs0triO8TcO6pqQ5xHpMQDdh7kLS7SadTglFk3zRbtqJu9eOhgF+E7lYHwRipLWYKnIRltkHDPwwkYAN3nmfwen8xgTqWzJ+PxWB9xdglNBWVP0IPI3Hvuhpee9kDBEcQPAorAdrRTAbkcrdvsudhPhbcDlcAB3CwGjHpdDHbbpDISZcuqY1eB9OR7Fti6U94kA8zMfTKTfpPNbUG8gpdvus2h5t/SHWLyXPNzaJ0af8QTD4JVPHZa3zrUBnu870dRalmLmK7XGPfiQ6gIwflqs21HAAQrurzqWv0FinCjrwo5N+0zVUS2jbBDt6FEIdDgC4b2NoKl6iaZ1xCubSKnMpc/Cqp6SROaHioc7rSRrX+9F64PPiXJBvFe+0I4avHihp5aZ6O+czFt6K+YTcRkBw9iCjUhrO0losvyBTgtlAXWFo/Vq1q1qkGRgK0Pi0423bUHKf2BQ+EJo0lifdSciYQDKuU41AHfKCcJZswyHsCGIX2NXGLhNwVoz6WlgEqJNrV0jbJNBHOmBWBTodtgjMkYqfnkqCnnDB7S/CEfNpVklvGeb6wVs306A6kkAeePo0y0k+HJnRkQPWPdn5YryjrWIk40IRG/W7gorp+gy1D0LqFdCFhp8T/c5y1XMF/eQ8RZY3Pqmk0oAr3IyJm2wYsNEQ3a3+5IFPCyUnWIiqBLJFnr5DCfVtWe9dHZbmDls2tK2LRDEMQOiaI8QxKTC6LsOe6Na3O9mjKSN0beA5gVILP2U2yesLgspygr4m9sh5LfmAgmKviPX5DM1DuJ88eowhCjJaLExBJNcCgM6/nyc+NUc5Wot26A5KeAxcCf8XDc42n6fgXvr1ohq/kXAHpfUNInmjd5f2p7l9An19D5hqhdebYICBV3sF55W5uyQTrIXSiNWyQVk71MlFfFSuOtTnULel1k9NUG0ZWsTjXjy36Bx0uAOsyZcFDvW8egjAuWZvTiY1SKSR/16G+ROIv9Pu8Zd1LqAAzTaEmfDgZiSEvZCo8gnpiOCqRe1r52glOB9xWeAXGm0T3HMn+KY1IBFnm8oPfkmIldoCZjUts6o3paZYVw4jaZmah7ruRoPeI4GhN8RhxcaHVddE/sb83JcTnEooRvjWEQ7SzwSjG5gTXiaPd7IaQLZ2RjMsEsu6HhnKgakwcHr0o0zO3013sssGWykEvuFIfIkkBCjgvk9gjzqnIks0SdAneJT1drcm9cpTrjVFb0MfiiXi3QWVE7N0Rk1d02gGjCCDXS15Zh9a6vcsbCMXvGWQHnqzYtzmQTeOhfNnrZW1ZdY9tT3NWqnAlWnNimstBefA642qnokLemqfRLy+L8NeNSMjO0azcdnolyqd3nsGInMhLfUA2E5YmNjHNhU9USboAVzaAI6eRW6vEgW1M+EbPbx+PSoLTn1kg/WyF+mqL7Zfxlr0UafKkCaFa4sJJUrQv7Eey206sBeez/ac0facbr5TmgNl1GifU2dbAHrjA8ZESyjBLvOz2xkeTK9HmTCa1T4can5rkzFjR18M+GrrJX9nMNL8xXEGobTkmo5/MUVyv/gR1s/CHvlyArzejWgNUb8eiCQkS3AGF1EEp9dPVcU/i3LMvVrrmvhrS4+p5FS6Rb2JpVMuDAmA+XV/4gmXh43V6Z2xwRHcxU7zo9Grx8dxrjytBGu6NeNIce2cSvXiVs0ZhxTcfuRZQq5J0hR0qPDTuc2AXklVxXSC49NYIdmjjUiahXDXdxCJ44kgt/gH6qqi5aGzGsWIkPMNaIUDUJuJ0sabdTOTXGRyx/VDCEWP85W/XB7owNocvr6qOn6yMW4IM6C9kxo7C/AQSjqvwi6qfoUXwTi432chjfCha8SMBa2guF6dCClHMMqlMZE/Wjc0YKUwsy2Ja4r+UKJy0CzuCMGNtsf17BNyvgnOt4dXCiYHmOpQ5paLgkwKSsn7iUXkPVO1aw/PTSJpaID0iqveYy/qjzaoWmiRlMthmEYe88FjJoJzLr6K+pOBIN3phnrV6HHyZxw28iuSMsBP8zt8JM019jgB92r/4WoHjGzzRuiGWmhXQrlYnvQlT5/oPYF+hCYrtZlWOCmNtBWIFa31FLjoe2qClNJGGUAloUy5IjF2XdPuR5NetU1CScJp5tLAqoPiJb47ZT1WRDPkKJG+xpxgxPr4+kaAD+UJtx20REZ8e2d+HeVgET6yenN5poI7BCG6VuJjxgXUmzVxxb15JrXw6fSm5NwLAmxMn+29+qoYo7Rc+VLxfQ9ZJMfMSyLRvAuVievAIV77e9DGb2Pnkvvb3M//pJJTupU+gFAJr+tGIIVzZ0/g4dvguqBcEgQ+NaBRFej6NJHS1J2X9IuAP0MAtEcAZKbhUE1UgE0JhUCnQsQrDmmp/kpS3l7QYT7VGCe1o8wSX5RZY37mV0+l1jMI1P4p+3GQH1mWYs7kJeAAqAH26FONtradsalqzxF0FZP0HmFt6Mb8M1INGk3B5VyOs6TnB2GsNBPCYu70sgGcu8BLCGpYUoKrI9S/oy0Q4q/T/8Wo1Tit4cgR93iEzjyQCKUtFf4RDi2bD9pg1KJbcglME9XY+6rBoikl0JPUPDuCpDcfkxD4bkDxSwiMGXdB/HwKeQRvWEAK1B7hrzswOEp5hQkENNiFOPfZttjE6K0yTjnjtxGSnKCRnG2ujvkg0udW0H0ov/hd+ozeYavODGCM8BWQbuKv3X2/qdh+TJV5CujGOvXTnL/sP2eSwF6KPgXPqGpB7mm/paCFc2lxkMQCGwp9sbEJ5LZIY16PiS9RDpSImHlyS2x1CyIvCRCgbT8rcFEv1oO9PE8at0cwa6sjyABUwU2XuvWNYeVBiywLAdiVvTLRR5jvrm0NTA+168gcYc3KHqrhkMd75Pkcn1CmYpvySsbMPxiEvDEBvvCDbK/HW7Z0JasQyQxSWOa1pdiG3DgD/vSKfz1FDdK0fL0NmB33r2WhhED5lGlYfeXqLZj/rYc4uShhXsfDY/R+gYIcI+UPqZVUDvEO8hu7X3nQLrqhAZ2HzsCaPA+hG1Hvo/rAkNNI4Wp0Q4LTCXSjGsb8fg2hLKAPTX04cnFKAy8j/s8jve/Mb++WfFMt5phW7ZdypMAgGITkgP/A61+OA4qUNaNpkvuEHs95VzGs+hHlH6fqTLDn6eyiP4RjrtpyqUOt+OGwA2aUfq8bLZ27I2CgFpKFXLZUFPr6QwO5VXpAYqPQAcOpNAhPCXcya74FW6ERuxOJmNvDxjT5A5Ws3UFWmCKO4KVvX7MuupgYTbzf7BVL9/DJkVY5e/zll3LtClzWKmOmtRkOHhHN32juW6LhqTm9RdR3TdoeEdBqSVr4sPIk7S1XEzSEuOvRK44bkcnIBUoPvaEPS/EDfXYU8ycbw7zveC3hcf+cyR2Pr//9CN+a/H/a9/hT8Pg1pF6Jw1/f/ezaAWMGm5u9To17TopXGNDngf9/5hdbtRctav/roP/Jt7Fv/hhOYYCKJD/Sngs9XP/uelaTp3WhtUWls0Uyrf/3X/ogj/fOPCsZ+H/iuihvQQp+BntPVhtQ0nB8PWu/EmNLj5Vq5RqIXKs1z50vukdXZICRaWup+niZeJ8kAabUy0zmLdodDwthVCcycBd0eS4GUZUhjtTv+7ppqU4XCeMUfqROxZMHary+D4EIWX4KXs2SLJAJd1misQUw3qPYN6LnPtfNd8213CzIjQE3+MRn57oSrZoSSHUjirksGpvrh/o5z+duxT5INQmijzM/W0QEZtfg/LUqC6Lzqpl5t5t/JR6gwKjqfnIki9sYIyK71REY+UieBTcsYIJuFn7YZvJsWwC4voVy8ONQ06W02cPT8LNLZ6SBMtN6W000O5RXSACbWG5zGrmj/CkTW4LUo0IQ33tluyrO7YlGVTrvyUrQvAMM/tdB1ztFknsAAwAQzbI9BaljAujfmTHi+pFtuSaRDd5/z02TW1fH7nujrKBmaCffTsM1p78Hr4aI3xcSeQN8skGHuRuvfTJLPUFQAhkFpuy+962U3iDhpdRJyMqvFQrdluMLMmS30OxvV3yo4XVRFW6ZrK0GJDji3utGzpCkmIfSQTZGqSBHcj9uA/PriQzv9GBvmaqSEbZzAisDJ288RikJs77SpZRQEGxngwHh4AvZeAPN3j8hQoP1RnHICVnfne87olLkYHue0VMHucTEangSq/dlaCPp4xd1kT+no+14wiT+DC9mwVe9Lw/8BpYBUkqinAy5+8PeYxp1FB6DqG3+yp0EfeTYi2DewokIHJe6knK0O+96HWC8St5luwf62u0Uy8gbWznaNcatwSrpBREtBfqi2nNVFtOk16+Rlk1n9FtFFi9gmIUMWL3LDNJy5lIng0V28AXySQQH/MyYzKmAtB+vvpQ62hXxE7mkGzrQYcXNZ0J/C4ZcdypxgSt2O+OUw1zEZpVb+DP8hSAYZAGCBpoAz+AjI4u6yrH6jht9hsQAAeWMJ1Rn38j9IKiU+lT99wPbGmq6tOKl/vaio1/Oe5DreUZVlNiN6+r33gSL6H+eyaYHSnJBdCXK/MWliGDs5RRzS0WNUf0SC0jHDNk6bhy/bJCGrK5rW4MZLZlXCriUT4rxZGAhVzqyXofkisUY3OmvwnqU99zrtBPww5fSEC+S7VLOUah2nxo8ExcxyFwhmyLwht0BcCtcxygL+z1l+kK7j399eGKO1KzDofDVqnG5Rab5Vu9H0ALNlPcUZStPgVKwuCsbFZl9YYGbcu2pn8tglnjZEyBKq+EojDgs7gpcWuAU5ZadZDakgAWPEvV2YuoxRzwHYXD0alt1iJDoQGgHfdbmKJiVEK3sf3CRF6RiKzmPIDJikAE4OwOYS6B/NkLDmuyp9nqI1D1vj1NOgLbfQQznLMVbSXYGhm1xZFeBIPZPpCyjCHogeJMd74/STuyH72a/JWKjSGJiqEIFi9yUnnz8oAjEOeloO5STeSd1MAdlNW3Vvx9+l62E+aEdGreHjKALZWjOuUrhQJgD4GloUYUWI0vCPsnr6VszsS/jJ27/PzCY/6coWLEKiv1X8clfp9jodZIejrragKiLtd03N9Zjkt7aUM7Xlfn1I5P8EM3D/fRpQXvwj7Jrm5FIA8ZuMcXRhtW/CbZsej7YODstDEIfkfR8n8dcrMy1F8J2LYHnPXZ6KmrueUvg0illr2pf+YifLQm3O7MN2s50dzHg0szzgnE9vwoZZwwk+ZMrZYJW/GLCmTNcQFJng8yXpAwFlVj+x8s4ml83K0DV4Wscag/zd3+QxfgCFiZxkINyv17I6GDY3fieVJraJIl7h9LMApT/+8xV4uDq131bW2H3IMJVk/9YTRzfEETDxjJynUqScWRK9fysZbJoMN7cyI1juHsXHpPBYfeYSRwW2MYbFMvQfQ3WfmQh/TLnWvzAhyEFf+Dvil8IXp0MLdteCeLqu+94SZaU0usKqbXMVlX3qwEgsYCVMYqbRFWv4vipSWrXdpdcogW33kHQ7X4is4D6tWtIbORrs2pbnPgrdws8YFCVme4G2rSqeegxVUVrZ5hoY2sMhQYLI7FXGAyvnJimbwrko8FeqXkjE1PEWtHa6YCAepKSAaJa7x1Dlswqo5gPpyHlWNPH3THZM9toIOTb5xVhIckDV5XW+XFMtlrr/A0yHsbctFb4W7C/WzokcVShttI0LKowFaojn+BSNDXICabAYAQpGFMVM1Wnc68VBucNQB9Yn1YRmN0zvtGyiyxVB+U2ZcPWY88mDYNscck4/wxOrIMjmoMI5eZ6Krq4rc01TRJQbcY/p2Gm39q752SPAAAA==;" vertex="1" parent="1">
          <mxGeometry width="512" height="512" as="geometry" />
        </mxCell>
        <mxCell id="zVCy08DbtLVFqTKnJKYJ-2" value="" style="ellipse;whiteSpace=wrap;html=1;fillColor=#d5e8d4;strokeColor=#82b366;" vertex="1" parent="1">
          <mxGeometry x="40" y="360" width="420" height="80" as="geometry" />
        </mxCell>
      </root>
    </mxGraphModel>
  </diagram>
</mxfile>
